<svg version="1.1" xmlns="http://www.w3.org/2000/svg" viewBox="0 0 1034 604.5" width="1034" height="604.5" filter="invert(93%) hue-rotate(180deg)">
  <!-- svg-source:excalidraw -->
  
  <defs>
    <style class="style-fonts">
      @font-face {
        font-family: "Virgil";
        src: url("https://excalidraw.com/Virgil.woff2");
      }
      @font-face {
        font-family: "Cascadia";
        src: url("https://excalidraw.com/Cascadia.woff2");
      }
    </style>
    
  </defs>
  <rect x="0" y="0" width="1034" height="604.5" fill="#ffffff"></rect><g stroke-linecap="round" transform="translate(10 89) rotate(0 40 22)"><path d="M11 0 M11 0 C23.53 0.66, 38.77 0.22, 69 0 M11 0 C26.72 0.72, 43.38 -0.07, 69 0 M69 0 C74.48 -1.85, 79.06 5.19, 80 11 M69 0 C77.49 -0.9, 81.28 5.05, 80 11 M80 11 C79.65 14.27, 81.58 21.76, 80 33 M80 11 C80.1 18.35, 79.61 25.32, 80 33 M80 33 C79.2 39.84, 77.3 45.95, 69 44 M80 33 C81.44 40.86, 77.19 43.65, 69 44 M69 44 C49.35 43.5, 27.11 44.2, 11 44 M69 44 C53.01 43.61, 35.39 44.96, 11 44 M11 44 C4.52 45.88, -0.65 38.56, 0 33 M11 44 C2.66 42.31, 0.07 42.02, 0 33 M0 33 C1.1 25.62, 1.88 20.47, 0 11 M0 33 C-0.03 26.98, 0.08 22.68, 0 11 M0 11 C-0.57 4.75, 4.85 1.96, 11 0 M0 11 C-1.37 2.85, 4.9 -1.12, 11 0" stroke="#1971c2" stroke-width="1" fill="none"></path></g><g transform="translate(26.450027465820312 98.5) rotate(0 23.549972534179688 12.5)"><text x="23.549972534179688" y="0" font-family="Virgil, Segoe UI Emoji" font-size="20px" fill="#1971c2" text-anchor="middle" style="white-space: pre;" direction="ltr" dominant-baseline="text-before-edge">n = 1</text></g><g stroke-linecap="round" transform="translate(116 50) rotate(0 303 63.5)"><path d="M31.75 0 M31.75 0 C160.74 -0.17, 289.83 0.29, 574.25 0 M31.75 0 C242.17 0.87, 452.79 1.19, 574.25 0 M574.25 0 C596.69 -0.33, 607.54 11.84, 606 31.75 M574.25 0 C596.95 1.88, 607.51 10.73, 606 31.75 M606 31.75 C605.82 53.7, 606.48 78.59, 606 95.25 M606 31.75 C605.85 45.71, 606.43 60.57, 606 95.25 M606 95.25 C606.88 117.04, 594.26 126.91, 574.25 127 M606 95.25 C605.51 116.28, 594.51 125.44, 574.25 127 M574.25 127 C382.53 129.41, 190.32 129.33, 31.75 127 M574.25 127 C370.22 127.16, 166.13 127.48, 31.75 127 M31.75 127 C12.27 128.66, -0.9 118.07, 0 95.25 M31.75 127 C10.1 128.42, 0.11 117.55, 0 95.25 M0 95.25 C-1.35 81.49, -0.59 64.53, 0 31.75 M0 95.25 C-0.22 82.8, -0.73 69.32, 0 31.75 M0 31.75 C-0.95 10.39, 10.35 -0.57, 31.75 0 M0 31.75 C1.59 11.87, 11.71 1.84, 31.75 0" stroke="#868e96" stroke-width="1" fill="none"></path></g><g stroke-linecap="round" transform="translate(310 10) rotate(0 66.5 17.5)"><path d="M8.75 0 M8.75 0 C33.31 -1.89, 57.57 -0.08, 124.25 0 M124.25 0 C130.86 -1.61, 131.25 1.61, 133 8.75 M133 8.75 C132.15 14.61, 133.89 18.06, 133 26.25 M133 26.25 C132.41 31.83, 131.59 36.69, 124.25 35 M124.25 35 C91.01 31.92, 55.47 32.34, 8.75 35 M8.75 35 C4.59 33.25, 1.17 30.56, 0 26.25 M0 26.25 C0.16 21.31, -1.25 19.15, 0 8.75 M0 8.75 C1 1.59, 3.67 -1.78, 8.75 0" stroke="#c2255c" stroke-width="2.5" fill="none" stroke-dasharray="1.5 8"></path></g><g transform="translate(334.76004791259766 15) rotate(0 41.739952087402344 12.5)"><text x="41.739952087402344" y="0" font-family="Virgil, Segoe UI Emoji" font-size="20px" fill="#c2255c" text-anchor="middle" style="white-space: pre;" direction="ltr" dominant-baseline="text-before-edge">Unigrams</text></g><g stroke-linecap="round" transform="translate(126 83) rotate(0 27 29)"><path d="M13.5 0 M13.5 0 C20.94 -1.91, 26.36 -0.44, 40.5 0 M40.5 0 C47.96 0.49, 53.08 4.87, 54 13.5 M54 13.5 C52.85 27.16, 53.83 39.08, 54 44.5 M54 44.5 C54.87 51.99, 51.28 57.82, 40.5 58 M40.5 58 C34.95 58.95, 25.97 57.28, 13.5 58 M13.5 58 C4.31 57.37, 0.15 53.59, 0 44.5 M0 44.5 C1.57 38.38, 0.1 29.15, 0 13.5 M0 13.5 C-0.56 2.61, 5.11 -1.37, 13.5 0" stroke="#be4bdb" stroke-width="2.5" fill="none" stroke-dasharray="8 10"></path></g><g transform="translate(141.02001190185547 99.5) rotate(0 11.979988098144531 12.5)"><text x="11.979988098144531" y="0" font-family="Virgil, Segoe UI Emoji" font-size="20px" fill="#be4bdb" text-anchor="middle" style="white-space: pre;" direction="ltr" dominant-baseline="text-before-edge">No</text></g><g stroke-linecap="round" transform="translate(191.5 82) rotate(0 50 29)"><path d="M14.5 0 M14.5 0 C38.58 0.87, 60.59 -1.39, 85.5 0 M85.5 0 C95.01 -0.37, 99.28 3.1, 100 14.5 M100 14.5 C99.1 22.32, 98.31 31.41, 100 43.5 M100 43.5 C100.94 52.29, 94.2 59.11, 85.5 58 M85.5 58 C63.82 59.72, 39.9 58.33, 14.5 58 M14.5 58 C6 57.12, -1.91 51.43, 0 43.5 M0 43.5 C-0.93 36.44, 0.32 30.67, 0 14.5 M0 14.5 C1.15 6.03, 6.23 -0.73, 14.5 0" stroke="#be4bdb" stroke-width="2.5" fill="none" stroke-dasharray="8 10"></path></g><g transform="translate(208.18003845214844 98.5) rotate(0 33.31996154785156 12.5)"><text x="33.31996154785156" y="0" font-family="Virgil, Segoe UI Emoji" font-size="20px" fill="#be4bdb" text-anchor="middle" style="white-space: pre;" direction="ltr" dominant-baseline="text-before-edge">worries</text></g><g stroke-linecap="round" transform="translate(306 82) rotate(0 50 29)"><path d="M14.5 0 M14.5 0 C34.89 -0.47, 53.95 0.07, 85.5 0 M85.5 0 C95.97 1.49, 100.69 4.51, 100 14.5 M100 14.5 C99.34 23.4, 99.48 32.16, 100 43.5 M100 43.5 C98.24 53.32, 93.34 56.2, 85.5 58 M85.5 58 C58.03 58.34, 33.91 60.18, 14.5 58 M14.5 58 C4.16 58.09, -1.79 54.12, 0 43.5 M0 43.5 C-1.53 34.68, 1.05 22.74, 0 14.5 M0 14.5 C-1.48 3.1, 5.82 0.65, 14.5 0" stroke="#be4bdb" stroke-width="2.5" fill="none" stroke-dasharray="8 10"></path></g><g transform="translate(331.8800277709961 98.5) rotate(0 24.119972229003906 12.5)"><text x="24.119972229003906" y="0" font-family="Virgil, Segoe UI Emoji" font-size="20px" fill="#be4bdb" text-anchor="middle" style="white-space: pre;" direction="ltr" dominant-baseline="text-before-edge">mate</text></g><g stroke-linecap="round" transform="translate(419 80) rotate(0 50 29)"><path d="M14.5 0 M14.5 0 C28.16 -1.75, 42.47 0.72, 85.5 0 M85.5 0 C95.81 -0.45, 101.03 3.55, 100 14.5 M100 14.5 C99.56 24.57, 100.18 31.01, 100 43.5 M100 43.5 C99.83 52.91, 93.79 57.34, 85.5 58 M85.5 58 C69.81 58.62, 55.98 56.78, 14.5 58 M14.5 58 C5.6 59.46, 0.39 52.89, 0 43.5 M0 43.5 C-0.05 33.67, -1.03 21.93, 0 14.5 M0 14.5 C0.02 5.47, 3.42 -1.96, 14.5 0" stroke="#be4bdb" stroke-width="2.5" fill="none" stroke-dasharray="8 10"></path></g><g transform="translate(445.24002838134766 96.5) rotate(0 23.759971618652344 12.5)"><text x="23.759971618652344" y="0" font-family="Virgil, Segoe UI Emoji" font-size="20px" fill="#be4bdb" text-anchor="middle" style="white-space: pre;" direction="ltr" dominant-baseline="text-before-edge">she'll</text></g><g stroke-linecap="round" transform="translate(529.4999961853027 79) rotate(0 35.5 29)"><path d="M14.5 0 M14.5 0 C24.94 -1.08, 34.12 1.42, 56.5 0 M56.5 0 C64.87 0.36, 70.53 3.43, 71 14.5 M71 14.5 C70.97 22.89, 71.35 30.15, 71 43.5 M71 43.5 C71.07 52.69, 64.73 58.03, 56.5 58 M56.5 58 C38.63 59.78, 24.25 56.39, 14.5 58 M14.5 58 C6.05 58.57, -1.06 52.93, 0 43.5 M0 43.5 C-0.24 37.75, 0.15 33.59, 0 14.5 M0 14.5 C1.8 4.12, 6.32 -1.01, 14.5 0" stroke="#be4bdb" stroke-width="2.5" fill="none" stroke-dasharray="8 10"></path></g><g transform="translate(554.450008392334 95.5) rotate(0 10.54998779296875 12.5)"><text x="10.54998779296875" y="0" font-family="Virgil, Segoe UI Emoji" font-size="20px" fill="#be4bdb" text-anchor="middle" style="white-space: pre;" direction="ltr" dominant-baseline="text-before-edge">be</text></g><g stroke-linecap="round" transform="translate(610.4999961853027 80) rotate(0 50 29)"><path d="M14.5 0 M14.5 0 C33.36 1.26, 54.19 -1.55, 85.5 0 M85.5 0 C93.41 -1.56, 100.13 5.69, 100 14.5 M100 14.5 C100.17 23.24, 97.84 31.84, 100 43.5 M100 43.5 C99.52 52.12, 94.19 56.7, 85.5 58 M85.5 58 C64.03 60.2, 42.11 59.23, 14.5 58 M14.5 58 C3.59 57.09, 0.9 53.89, 0 43.5 M0 43.5 C-0.02 37.58, 0.95 26.79, 0 14.5 M0 14.5 C0.27 6.73, 3.01 1.67, 14.5 0" stroke="#be4bdb" stroke-width="2.5" fill="none" stroke-dasharray="8 10"></path></g><g transform="translate(638.4100227355957 96.5) rotate(0 22.08997344970703 12.5)"><text x="22.08997344970703" y="0" font-family="Virgil, Segoe UI Emoji" font-size="20px" fill="#be4bdb" text-anchor="middle" style="white-space: pre;" direction="ltr" dominant-baseline="text-before-edge">right</text></g><g stroke-linecap="round"><g transform="translate(731.5604395604396 108.17680656921488) rotate(0 24.12019551759488 1.709412387740386)"><path d="M-2.67 2.21 C6.17 2.08, 42.32 0.79, 50.91 1.35" stroke="#2f9e44" stroke-width="4.5" fill="none" stroke-dasharray="8 12"></path></g><g transform="translate(731.5604395604396 108.17680656921488) rotate(0 24.12019551759488 1.709412387740386)"><path d="M30.16 10.23 C29.79 5.85, 41.2 7.63, 49.46 3.88" stroke="#2f9e44" stroke-width="4.5" fill="none"></path></g><g transform="translate(731.5604395604396 108.17680656921488) rotate(0 24.12019551759488 1.709412387740386)"><path d="M30.27 -7.12 C30.14 -7.6, 41.52 -1.92, 49.46 3.88" stroke="#2f9e44" stroke-width="4.5" fill="none"></path></g></g><mask></mask><g stroke-linecap="round" transform="translate(787 26) rotate(0 115.5 87.5)"><path d="M32 0 M32 0 C65.82 -2.25, 104.72 1.65, 199 0 M199 0 C223.52 2.11, 227.21 10.9, 231 32 M231 32 C231.47 61.37, 234.46 88.45, 231 143 M231 143 C233.21 161.9, 217.3 173.71, 199 175 M199 175 C148.7 170.93, 89.97 172.9, 32 175 M32 175 C9.65 175.9, -3.89 163.82, 0 143 M0 143 C-1.16 104.45, 1.24 72.03, 0 32 M0 32 C-3.06 9.5, 13.84 0.02, 32 0" stroke="#1e1e1e" stroke-width="2.5" fill="none" stroke-dasharray="1.5 8"></path></g><g transform="translate(824 37) rotate(0 33.31996154785156 75)"><text x="0" y="0" font-family="Virgil, Segoe UI Emoji" font-size="20px" fill="#1e1e1e" text-anchor="start" style="white-space: pre;" direction="ltr" dominant-baseline="text-before-edge">No</text><text x="0" y="25" font-family="Virgil, Segoe UI Emoji" font-size="20px" fill="#1e1e1e" text-anchor="start" style="white-space: pre;" direction="ltr" dominant-baseline="text-before-edge">worries</text><text x="0" y="50" font-family="Virgil, Segoe UI Emoji" font-size="20px" fill="#1e1e1e" text-anchor="start" style="white-space: pre;" direction="ltr" dominant-baseline="text-before-edge">mate</text><text x="0" y="75" font-family="Virgil, Segoe UI Emoji" font-size="20px" fill="#1e1e1e" text-anchor="start" style="white-space: pre;" direction="ltr" dominant-baseline="text-before-edge">she'll</text><text x="0" y="100" font-family="Virgil, Segoe UI Emoji" font-size="20px" fill="#1e1e1e" text-anchor="start" style="white-space: pre;" direction="ltr" dominant-baseline="text-before-edge">be</text><text x="0" y="125" font-family="Virgil, Segoe UI Emoji" font-size="20px" fill="#1e1e1e" text-anchor="start" style="white-space: pre;" direction="ltr" dominant-baseline="text-before-edge">right</text></g><g stroke-linecap="round" transform="translate(16 286.5) rotate(0 40 22)"><path d="M11 0 M11 0 C27.86 1.35, 42.15 2.31, 69 0 M11 0 C28.84 1.16, 47.18 1.21, 69 0 M69 0 C75.69 -0.63, 78.93 3.26, 80 11 M69 0 C78.13 0.25, 78.61 5.45, 80 11 M80 11 C80.72 15.85, 80.2 20.62, 80 33 M80 11 C79.98 19.55, 80.5 26.2, 80 33 M80 33 C81.32 40.12, 77.98 45.54, 69 44 M80 33 C78.47 42.12, 75.14 43.22, 69 44 M69 44 C49.28 45.41, 29.98 44.46, 11 44 M69 44 C49.76 43.29, 29.82 44.07, 11 44 M11 44 C3.71 44.86, -0.95 40.02, 0 33 M11 44 C3.83 42.02, 0.71 38.75, 0 33 M0 33 C-0.55 27.77, 2 25.21, 0 11 M0 33 C-0.11 27.06, 0.45 18.72, 0 11 M0 11 C-0.15 4.29, 5.29 0.36, 11 0 M0 11 C1.37 3.03, 3.98 -0.35, 11 0" stroke="#1971c2" stroke-width="1" fill="none"></path></g><g transform="translate(28.04003143310547 296) rotate(0 27.95996856689453 12.5)"><text x="27.95996856689453" y="0" font-family="Virgil, Segoe UI Emoji" font-size="20px" fill="#1971c2" text-anchor="middle" style="white-space: pre;" direction="ltr" dominant-baseline="text-before-edge">n = 2</text></g><g stroke-linecap="round" transform="translate(122 247.5) rotate(0 303 63.5)"><path d="M31.75 0 M31.75 0 C216.96 -2.13, 401.55 -2.05, 574.25 0 M31.75 0 C239.48 -2.04, 447.25 -1.99, 574.25 0 M574.25 0 C596.98 0.22, 604.79 12.13, 606 31.75 M574.25 0 C593.72 -2.07, 603.9 11.64, 606 31.75 M606 31.75 C607.21 49.07, 607.11 69.33, 606 95.25 M606 31.75 C607.07 55.5, 607.24 80.24, 606 95.25 M606 95.25 C604.67 117.97, 594.38 126.32, 574.25 127 M606 95.25 C606.58 114.79, 595.29 126.03, 574.25 127 M574.25 127 C372.59 127.74, 170.35 127.64, 31.75 127 M574.25 127 C448.61 127.37, 322.75 127.14, 31.75 127 M31.75 127 C10.72 125.27, 0.61 115.04, 0 95.25 M31.75 127 C8.56 125.75, 0.49 115.64, 0 95.25 M0 95.25 C-0.39 76.23, -1.2 60.15, 0 31.75 M0 95.25 C-0.24 70.88, 0.65 46.07, 0 31.75 M0 31.75 C1.19 10.03, 10.86 -0.31, 31.75 0 M0 31.75 C0.1 11.77, 11.26 1.55, 31.75 0" stroke="#868e96" stroke-width="1" fill="none"></path></g><g stroke-linecap="round" transform="translate(316 207.5) rotate(0 66.5 17.5)"><path d="M8.75 0 M8.75 0 C52.55 -0.01, 100.29 0.71, 124.25 0 M124.25 0 C131.84 -0.64, 132.37 1.85, 133 8.75 M133 8.75 C132.08 15, 131.84 16.96, 133 26.25 M133 26.25 C131.17 33, 129.96 35.4, 124.25 35 M124.25 35 C92.52 34.47, 60.32 35.52, 8.75 35 M8.75 35 C2.16 36.32, -0.21 33.73, 0 26.25 M0 26.25 C-0.79 19.06, 0.56 11.82, 0 8.75 M0 8.75 C-0.11 2.07, 4.36 -1.28, 8.75 0" stroke="#c2255c" stroke-width="2.5" fill="none" stroke-dasharray="1.5 8"></path></g><g transform="translate(345.30004119873047 212.5) rotate(0 37.19995880126953 12.5)"><text x="37.19995880126953" y="0" font-family="Virgil, Segoe UI Emoji" font-size="20px" fill="#c2255c" text-anchor="middle" style="white-space: pre;" direction="ltr" dominant-baseline="text-before-edge">Bigrams</text></g><g stroke-linecap="round" transform="translate(132 280.5) rotate(0 27 29)"><path d="M13.5 0 M13.5 0 C22.96 -0.7, 28.27 -1.12, 40.5 0 M40.5 0 C49.09 1.56, 54.22 3.29, 54 13.5 M54 13.5 C51.95 26.12, 53.65 37.29, 54 44.5 M54 44.5 C53.67 54.58, 48.16 58.99, 40.5 58 M40.5 58 C31.31 59.49, 23.41 59.82, 13.5 58 M13.5 58 C6.04 56.67, 1.56 52.46, 0 44.5 M0 44.5 C-0.19 35.4, 1.37 26.72, 0 13.5 M0 13.5 C0.49 5.18, 5 -0.09, 13.5 0" stroke="#be4bdb" stroke-width="2.5" fill="none" stroke-dasharray="8 10"></path></g><g transform="translate(147.02001190185547 297) rotate(0 11.979988098144531 12.5)"><text x="11.979988098144531" y="0" font-family="Virgil, Segoe UI Emoji" font-size="20px" fill="#be4bdb" text-anchor="middle" style="white-space: pre;" direction="ltr" dominant-baseline="text-before-edge">No</text></g><g stroke-linecap="round" transform="translate(197.5 279.5) rotate(0 50 29)"><path d="M14.5 0 M14.5 0 C32.23 -1.76, 51.08 -2.03, 85.5 0 M14.5 0 C29.34 -0.13, 44.14 0.21, 85.5 0 M85.5 0 C93.82 0.99, 100.25 6.35, 100 14.5 M85.5 0 C96.66 -0.86, 101.51 4.59, 100 14.5 M100 14.5 C101.78 24.55, 99.55 37.19, 100 43.5 M100 14.5 C100.71 20.51, 100.23 28.14, 100 43.5 M100 43.5 C100.5 53.08, 95.42 56.63, 85.5 58 M100 43.5 C98.95 53.38, 95.21 58.98, 85.5 58 M85.5 58 C65.85 58.66, 48.27 56.29, 14.5 58 M85.5 58 C67.78 58.7, 51.4 57.87, 14.5 58 M14.5 58 C3.05 57.39, -0.61 54.94, 0 43.5 M14.5 58 C5.42 56.57, -0.17 53.88, 0 43.5 M0 43.5 C-0.61 32.72, -0.36 21.48, 0 14.5 M0 43.5 C0.72 32.44, -1.04 23.6, 0 14.5 M0 14.5 C1.25 4.96, 6.58 -0.58, 14.5 0 M0 14.5 C-1.27 6.75, 4.69 0.54, 14.5 0" stroke="#be4bdb" stroke-width="2" fill="none"></path></g><g transform="translate(214.18003845214844 296) rotate(0 33.31996154785156 12.5)"><text x="33.31996154785156" y="0" font-family="Virgil, Segoe UI Emoji" font-size="20px" fill="#be4bdb" text-anchor="middle" style="white-space: pre;" direction="ltr" dominant-baseline="text-before-edge">worries</text></g><g stroke-linecap="round" transform="translate(312 279.5) rotate(0 50 29)"><path d="M14.5 0 M14.5 0 C31.47 0.53, 47.01 0.31, 85.5 0 M14.5 0 C39.76 0.41, 65.43 -0.73, 85.5 0 M85.5 0 C96.48 -0.21, 101.65 6.37, 100 14.5 M85.5 0 C93.64 1.79, 98.8 4.06, 100 14.5 M100 14.5 C98.95 25.38, 98.52 33.87, 100 43.5 M100 14.5 C100.2 23.5, 99.62 33.96, 100 43.5 M100 43.5 C100.04 54.02, 94.22 57.68, 85.5 58 M100 43.5 C100.16 51.18, 95.87 56.42, 85.5 58 M85.5 58 C69.78 57.58, 57.29 59.68, 14.5 58 M85.5 58 C63.15 58.67, 41.67 57.16, 14.5 58 M14.5 58 C4.69 58.62, 1.62 53.52, 0 43.5 M14.5 58 C6.21 57.36, 0.31 52.81, 0 43.5 M0 43.5 C1.2 36.28, -1.88 23.94, 0 14.5 M0 43.5 C0.69 33.06, -0.73 24.04, 0 14.5 M0 14.5 C-0.13 5.31, 5.69 -1.93, 14.5 0 M0 14.5 C-2.03 6.12, 6.92 -1.64, 14.5 0" stroke="#be4bdb" stroke-width="2" fill="none"></path></g><g transform="translate(337.8800277709961 296) rotate(0 24.119972229003906 12.5)"><text x="24.119972229003906" y="0" font-family="Virgil, Segoe UI Emoji" font-size="20px" fill="#be4bdb" text-anchor="middle" style="white-space: pre;" direction="ltr" dominant-baseline="text-before-edge">mate</text></g><g stroke-linecap="round" transform="translate(425 277.5) rotate(0 50 29)"><path d="M14.5 0 M14.5 0 C35.6 0.73, 56.24 1.78, 85.5 0 M14.5 0 C33.96 0.85, 51.1 0.85, 85.5 0 M85.5 0 C94.13 -0.68, 100.51 3.42, 100 14.5 M85.5 0 C95.04 -0.97, 101.66 3.36, 100 14.5 M100 14.5 C100.01 24.17, 98.73 32.42, 100 43.5 M100 14.5 C99.53 23.31, 100.08 31.58, 100 43.5 M100 43.5 C100.61 51.79, 93.4 56.91, 85.5 58 M100 43.5 C100.49 52.39, 94.51 60.16, 85.5 58 M85.5 58 C58.16 56.75, 33.8 57.88, 14.5 58 M85.5 58 C69.44 58.4, 52.35 57.94, 14.5 58 M14.5 58 C5.11 57.69, 0.09 54.2, 0 43.5 M14.5 58 C5.51 59.55, 1.85 51.18, 0 43.5 M0 43.5 C-0.02 39.3, -0.73 30.52, 0 14.5 M0 43.5 C0.44 31.41, -0.86 21.82, 0 14.5 M0 14.5 C1.82 3.41, 6.82 1.42, 14.5 0 M0 14.5 C-1.26 5.45, 6.78 -1.72, 14.5 0" stroke="#be4bdb" stroke-width="2" fill="none"></path></g><g transform="translate(451.24002838134766 294) rotate(0 23.759971618652344 12.5)"><text x="23.759971618652344" y="0" font-family="Virgil, Segoe UI Emoji" font-size="20px" fill="#be4bdb" text-anchor="middle" style="white-space: pre;" direction="ltr" dominant-baseline="text-before-edge">she'll</text></g><g stroke-linecap="round" transform="translate(535.4999961853027 276.5) rotate(0 35.5 29)"><path d="M14.5 0 M14.5 0 C29.61 1.37, 46.7 -1.61, 56.5 0 M14.5 0 C30.62 -0.56, 46.18 -0.28, 56.5 0 M56.5 0 C67.61 -1.28, 71.49 5.51, 71 14.5 M56.5 0 C66.74 -0.1, 71.29 3.26, 71 14.5 M71 14.5 C71.88 20.93, 70.71 29.4, 71 43.5 M71 14.5 C70.21 20.15, 71.3 26.56, 71 43.5 M71 43.5 C70.43 55.05, 67.7 58.21, 56.5 58 M71 43.5 C68.95 52.47, 65.46 60.04, 56.5 58 M56.5 58 C43.45 59.59, 29.51 59.16, 14.5 58 M56.5 58 C45.11 58.45, 33.92 58.61, 14.5 58 M14.5 58 C6.44 56.27, -1.9 54.17, 0 43.5 M14.5 58 C6.27 58.14, 2.01 52.5, 0 43.5 M0 43.5 C0.23 37.25, -2.18 27.53, 0 14.5 M0 43.5 C0.73 33.88, -0.81 23.12, 0 14.5 M0 14.5 C1.7 3.34, 6.47 -0.6, 14.5 0 M0 14.5 C-0.77 5.56, 7.04 -1.48, 14.5 0" stroke="#be4bdb" stroke-width="2" fill="none"></path></g><g transform="translate(560.450008392334 293) rotate(0 10.54998779296875 12.5)"><text x="10.54998779296875" y="0" font-family="Virgil, Segoe UI Emoji" font-size="20px" fill="#be4bdb" text-anchor="middle" style="white-space: pre;" direction="ltr" dominant-baseline="text-before-edge">be</text></g><g stroke-linecap="round" transform="translate(616.4999961853027 277.5) rotate(0 50 29)"><path d="M14.5 0 M14.5 0 C30.4 0.88, 46.23 0.26, 85.5 0 M14.5 0 C33.05 0.79, 51.35 0.41, 85.5 0 M85.5 0 C95.42 -1.37, 99.09 5.02, 100 14.5 M85.5 0 C95.21 0.98, 98.91 4.47, 100 14.5 M100 14.5 C98.37 21.64, 98.66 32.73, 100 43.5 M100 14.5 C100.68 22.33, 99.03 29.65, 100 43.5 M100 43.5 C99.39 54.94, 95.68 56.75, 85.5 58 M100 43.5 C99.83 53.88, 97.03 58.41, 85.5 58 M85.5 58 C59.65 58.18, 35.45 58.68, 14.5 58 M85.5 58 C58.46 57.88, 33.96 57.45, 14.5 58 M14.5 58 C6.58 57.42, -1.1 54.84, 0 43.5 M14.5 58 C4.69 58.54, 0.98 50.94, 0 43.5 M0 43.5 C-1.59 39.35, 1.25 30.12, 0 14.5 M0 43.5 C0.57 33.72, -0.58 24.86, 0 14.5 M0 14.5 C1.92 3.54, 3.1 1.12, 14.5 0 M0 14.5 C0.12 4.94, 6.3 0.47, 14.5 0" stroke="#be4bdb" stroke-width="2" fill="none"></path></g><g transform="translate(644.4100227355957 294) rotate(0 22.08997344970703 12.5)"><text x="22.08997344970703" y="0" font-family="Virgil, Segoe UI Emoji" font-size="20px" fill="#be4bdb" text-anchor="middle" style="white-space: pre;" direction="ltr" dominant-baseline="text-before-edge">right</text></g><g stroke-linecap="round"><g transform="translate(737.5604395604396 305.67680656921493) rotate(0 26.686766302491492 1.1178890407876736)"><path d="M2.02 -1.79 C10.61 -0.92, 43.13 3.23, 51.35 4.02" stroke="#2f9e44" stroke-width="4.5" fill="none" stroke-dasharray="8 12"></path></g><g transform="translate(737.5604395604396 305.67680656921493) rotate(0 26.686766302491492 1.1178890407876736)"><path d="M24.12 10.94 C35.34 8.85, 41.07 6.61, 48.62 2.2" stroke="#2f9e44" stroke-width="4.5" fill="none"></path></g><g transform="translate(737.5604395604396 305.67680656921493) rotate(0 26.686766302491492 1.1178890407876736)"><path d="M26.08 -6.31 C36.58 -3.3, 41.73 -0.45, 48.62 2.2" stroke="#2f9e44" stroke-width="4.5" fill="none"></path></g></g><mask></mask><g stroke-linecap="round" transform="translate(793 223.5) rotate(0 115.5 87.5)"><path d="M32 0 M32 0 C95.52 0.17, 156.14 -0.32, 199 0 M199 0 C217.6 -1.82, 231.37 10.75, 231 32 M231 32 C230.22 66.6, 231.17 105.34, 231 143 M231 143 C227.48 162.16, 221.18 173.66, 199 175 M199 175 C154.08 174, 107.1 176.33, 32 175 M32 175 C14.21 176.02, -2.49 164.04, 0 143 M0 143 C0.59 105.14, -1.26 68.89, 0 32 M0 32 C0.18 12.73, 11.84 2.7, 32 0" stroke="#1e1e1e" stroke-width="2.5" fill="none" stroke-dasharray="1.5 8"></path></g><g transform="translate(834 247.5) rotate(0 62.43992614746094 62.5)"><text x="0" y="0" font-family="Virgil, Segoe UI Emoji" font-size="20px" fill="#1e1e1e" text-anchor="start" style="white-space: pre;" direction="ltr" dominant-baseline="text-before-edge">No worries</text><text x="0" y="25" font-family="Virgil, Segoe UI Emoji" font-size="20px" fill="#1e1e1e" text-anchor="start" style="white-space: pre;" direction="ltr" dominant-baseline="text-before-edge">worries mate</text><text x="0" y="50" font-family="Virgil, Segoe UI Emoji" font-size="20px" fill="#1e1e1e" text-anchor="start" style="white-space: pre;" direction="ltr" dominant-baseline="text-before-edge">mate she'll</text><text x="0" y="75" font-family="Virgil, Segoe UI Emoji" font-size="20px" fill="#1e1e1e" text-anchor="start" style="white-space: pre;" direction="ltr" dominant-baseline="text-before-edge">she'll be</text><text x="0" y="100" font-family="Virgil, Segoe UI Emoji" font-size="20px" fill="#1e1e1e" text-anchor="start" style="white-space: pre;" direction="ltr" dominant-baseline="text-before-edge">be right</text></g><g stroke-linecap="round" transform="translate(15.999996185302734 482.5) rotate(0 40 22)"><path d="M11 0 M11 0 C31.39 2.04, 49.66 -1.61, 69 0 M11 0 C27.67 1.36, 44.74 -0.43, 69 0 M69 0 C76.3 1.28, 78.1 1.83, 80 11 M69 0 C74.27 -2.1, 78.98 3.99, 80 11 M80 11 C79.58 18.33, 79.55 26.79, 80 33 M80 11 C79.59 16.49, 79.64 21.89, 80 33 M80 33 C81.76 39.1, 76.34 43.66, 69 44 M80 33 C81.44 39.23, 78.38 43.68, 69 44 M69 44 C49.73 43.96, 29.64 45.68, 11 44 M69 44 C48.47 43.33, 27.77 43.74, 11 44 M11 44 C2.32 45.74, -0.73 38.56, 0 33 M11 44 C4.03 43.14, -1.34 41.67, 0 33 M0 33 C-1.16 26.23, 0.46 21.69, 0 11 M0 33 C0.68 26.32, -0.71 22.24, 0 11 M0 11 C-0.09 3.98, 5.37 0.45, 11 0 M0 11 C0.24 1.87, 1.95 -0.17, 11 0" stroke="#1971c2" stroke-width="1" fill="none"></path></g><g transform="translate(28.350032806396484 492) rotate(0 27.64996337890625 12.5)"><text x="27.64996337890625" y="0" font-family="Virgil, Segoe UI Emoji" font-size="20px" fill="#1971c2" text-anchor="middle" style="white-space: pre;" direction="ltr" dominant-baseline="text-before-edge">n = 3</text></g><g stroke-linecap="round" transform="translate(121.99999618530273 443.5) rotate(0 303 63.5)"><path d="M31.75 0 M31.75 0 C244.89 1.51, 457.35 1.42, 574.25 0 M31.75 0 C240.5 2.3, 448.89 1.67, 574.25 0 M574.25 0 C593.62 -1.83, 605.11 10.86, 606 31.75 M574.25 0 C596.25 -2.03, 608.12 10.32, 606 31.75 M606 31.75 C605.28 49.89, 605.28 68.76, 606 95.25 M606 31.75 C606.71 47.59, 605.83 64.5, 606 95.25 M606 95.25 C607.25 115.46, 597.2 126.72, 574.25 127 M606 95.25 C607 116.84, 596.14 127.75, 574.25 127 M574.25 127 C418.03 128.32, 261.11 128.81, 31.75 127 M574.25 127 C456.1 126.42, 338.34 125.72, 31.75 127 M31.75 127 C10.9 126.25, -1.17 117.58, 0 95.25 M31.75 127 C9.19 126.1, 1.04 114.98, 0 95.25 M0 95.25 C-0.95 81.94, 1.75 68.31, 0 31.75 M0 95.25 C0.34 82.62, 1.24 69.9, 0 31.75 M0 31.75 C0.21 9.02, 9.09 -0.15, 31.75 0 M0 31.75 C0.67 8.53, 9.54 0.25, 31.75 0" stroke="#868e96" stroke-width="1" fill="none"></path></g><g stroke-linecap="round" transform="translate(315.99999618530273 403.5) rotate(0 66.5 17.5)"><path d="M8.75 0 M8.75 0 C31.31 -0.68, 59.1 -1.17, 124.25 0 M124.25 0 C128.2 -0.04, 134.28 1.02, 133 8.75 M133 8.75 C132.06 12.64, 133.48 14.5, 133 26.25 M133 26.25 C134.84 31.85, 130.02 34.74, 124.25 35 M124.25 35 C83.26 33.94, 42.74 34.04, 8.75 35 M8.75 35 C1.09 36.76, -1.24 32.09, 0 26.25 M0 26.25 C1.45 21.05, 0.65 16.66, 0 8.75 M0 8.75 C0.62 3.57, 2.69 0.49, 8.75 0" stroke="#c2255c" stroke-width="2.5" fill="none" stroke-dasharray="1.5 8"></path></g><g transform="translate(340.2300453186035 408.5) rotate(0 42.26995086669922 12.5)"><text x="42.26995086669922" y="0" font-family="Virgil, Segoe UI Emoji" font-size="20px" fill="#c2255c" text-anchor="middle" style="white-space: pre;" direction="ltr" dominant-baseline="text-before-edge">Trigrams</text></g><g stroke-linecap="round" transform="translate(131.99999618530273 476.5) rotate(0 27 29)"><path d="M13.5 0 M13.5 0 C17.97 0.2, 27.47 -1.66, 40.5 0 M40.5 0 C47.66 -1.8, 52.17 3.61, 54 13.5 M54 13.5 C55.95 23, 54.05 32.7, 54 44.5 M54 44.5 C54.99 52.86, 48.81 57.36, 40.5 58 M40.5 58 C31.47 59.69, 24.86 57.93, 13.5 58 M13.5 58 C4.16 59.25, -0.96 55.28, 0 44.5 M0 44.5 C0.49 36.28, -0.36 27.24, 0 13.5 M0 13.5 C1.5 5.66, 3.73 0.56, 13.5 0" stroke="#be4bdb" stroke-width="2.5" fill="none" stroke-dasharray="8 10"></path></g><g transform="translate(147.0200080871582 493) rotate(0 11.979988098144531 12.5)"><text x="11.979988098144531" y="0" font-family="Virgil, Segoe UI Emoji" font-size="20px" fill="#be4bdb" text-anchor="middle" style="white-space: pre;" direction="ltr" dominant-baseline="text-before-edge">No</text></g><g stroke-linecap="round" transform="translate(197.49999618530273 474.5) rotate(0 50 29)"><path d="M14.5 0 M14.5 0 C27.22 -0.25, 43.88 1.37, 85.5 0 M85.5 0 C93.4 1.84, 99.77 4.77, 100 14.5 M100 14.5 C99.45 22.19, 99.48 30.34, 100 43.5 M100 43.5 C99.44 51.34, 96.93 56.76, 85.5 58 M85.5 58 C63.22 60.23, 42.57 59.32, 14.5 58 M14.5 58 C5.2 58.62, 0.65 52.94, 0 43.5 M0 43.5 C-0.99 34.65, 0.24 23.04, 0 14.5 M0 14.5 C0.58 3.98, 3.49 1.74, 14.5 0" stroke="#be4bdb" stroke-width="2.5" fill="none" stroke-dasharray="8 10"></path></g><g transform="translate(214.18003463745117 491) rotate(0 33.31996154785156 12.5)"><text x="33.31996154785156" y="0" font-family="Virgil, Segoe UI Emoji" font-size="20px" fill="#be4bdb" text-anchor="middle" style="white-space: pre;" direction="ltr" dominant-baseline="text-before-edge">worries</text></g><g stroke-linecap="round" transform="translate(311.99999618530273 475.5) rotate(0 50 29)"><path d="M14.5 0 M14.5 0 C38.15 -0.72, 62.01 0.33, 85.5 0 M14.5 0 C33.21 -0.18, 52.3 -0.69, 85.5 0 M85.5 0 C96.93 -1.24, 100.01 4.5, 100 14.5 M85.5 0 C96.61 -1.1, 102.05 4.52, 100 14.5 M100 14.5 C100.71 24.24, 100.54 35.92, 100 43.5 M100 14.5 C100.12 24.05, 100.18 34.83, 100 43.5 M100 43.5 C98.65 54.9, 94.43 56.22, 85.5 58 M100 43.5 C100.36 52.3, 93.82 59.34, 85.5 58 M85.5 58 C67.26 56.81, 51.89 57.54, 14.5 58 M85.5 58 C67.92 57.68, 48.16 59.28, 14.5 58 M14.5 58 C4.74 58.31, 1.71 53.61, 0 43.5 M14.5 58 C5.07 56.2, -1.72 53, 0 43.5 M0 43.5 C0.48 35.18, 1.13 24.87, 0 14.5 M0 43.5 C0.56 34.22, -0.5 24.36, 0 14.5 M0 14.5 C0.91 3.7, 4.91 -0.63, 14.5 0 M0 14.5 C-0.61 5.84, 4.36 -0.17, 14.5 0" stroke="#be4bdb" stroke-width="2" fill="none"></path></g><g transform="translate(337.8800239562988 492) rotate(0 24.119972229003906 12.5)"><text x="24.119972229003906" y="0" font-family="Virgil, Segoe UI Emoji" font-size="20px" fill="#be4bdb" text-anchor="middle" style="white-space: pre;" direction="ltr" dominant-baseline="text-before-edge">mate</text></g><g stroke-linecap="round" transform="translate(424.99999618530273 473.5) rotate(0 50 29)"><path d="M14.5 0 M14.5 0 C38.67 -0.42, 63.29 -0.31, 85.5 0 M85.5 0 C93.34 1.76, 98.76 4.84, 100 14.5 M100 14.5 C101.96 22.44, 101.05 31.29, 100 43.5 M100 43.5 C100.62 53.82, 94.94 58.49, 85.5 58 M85.5 58 C59.43 58.19, 30.59 58.3, 14.5 58 M14.5 58 C3.98 56.65, 1.74 52.43, 0 43.5 M0 43.5 C-1.21 38.54, -1.26 30.47, 0 14.5 M0 14.5 C0.91 3.58, 3.33 0.38, 14.5 0" stroke="#be4bdb" stroke-width="2.5" fill="none" stroke-dasharray="8 10"></path></g><g transform="translate(451.2400245666504 490) rotate(0 23.759971618652344 12.5)"><text x="23.759971618652344" y="0" font-family="Virgil, Segoe UI Emoji" font-size="20px" fill="#be4bdb" text-anchor="middle" style="white-space: pre;" direction="ltr" dominant-baseline="text-before-edge">she'll</text></g><g stroke-linecap="round" transform="translate(535.4999923706055 472.5) rotate(0 35.5 29)"><path d="M14.5 0 M14.5 0 C24.69 -0.36, 37.02 0.88, 56.5 0 M56.5 0 C65.21 1.78, 70.72 5.7, 71 14.5 M71 14.5 C70.87 24.22, 72.59 34.12, 71 43.5 M71 43.5 C70.23 53.72, 66.63 56.35, 56.5 58 M56.5 58 C44.42 56.98, 27.1 58.03, 14.5 58 M14.5 58 C4.08 56.83, 1.16 51.95, 0 43.5 M0 43.5 C-1.64 36.31, -0.91 27.54, 0 14.5 M0 14.5 C0.95 6.7, 6.41 -1.97, 14.5 0" stroke="#be4bdb" stroke-width="2.5" fill="none" stroke-dasharray="8 10"></path></g><g transform="translate(560.4500045776367 489) rotate(0 10.54998779296875 12.5)"><text x="10.54998779296875" y="0" font-family="Virgil, Segoe UI Emoji" font-size="20px" fill="#be4bdb" text-anchor="middle" style="white-space: pre;" direction="ltr" dominant-baseline="text-before-edge">be</text></g><g stroke-linecap="round" transform="translate(616.4999923706055 473.5) rotate(0 50 29)"><path d="M14.5 0 M14.5 0 C39.98 0.24, 66.37 -0.01, 85.5 0 M85.5 0 C95.82 -0.22, 100.49 6.33, 100 14.5 M100 14.5 C100.35 23.23, 100.47 34.41, 100 43.5 M100 43.5 C98.65 54.9, 94.43 56.22, 85.5 58 M85.5 58 C64.24 56.37, 39.87 58.49, 14.5 58 M14.5 58 C3.58 56.49, 0.38 52.38, 0 43.5 M0 43.5 C1.44 34.03, -1.35 29.74, 0 14.5 M0 14.5 C-0.09 5.15, 6.54 0.45, 14.5 0" stroke="#be4bdb" stroke-width="2.5" fill="none" stroke-dasharray="8 10"></path></g><g transform="translate(644.4100189208984 490) rotate(0 22.08997344970703 12.5)"><text x="22.08997344970703" y="0" font-family="Virgil, Segoe UI Emoji" font-size="20px" fill="#be4bdb" text-anchor="middle" style="white-space: pre;" direction="ltr" dominant-baseline="text-before-edge">right</text></g><g stroke-linecap="round"><g transform="translate(737.5604357457423 501.67680656921493) rotate(0 26.22344817882299 2.6887414418952744)"><path d="M-0.31 0.68 C8.33 1.31, 44.44 4.17, 52.76 4.7" stroke="#2f9e44" stroke-width="4.5" fill="none" stroke-dasharray="8 12"></path></g><g transform="translate(737.5604357457423 501.67680656921493) rotate(0 26.22344817882299 2.6887414418952744)"><path d="M29.32 14.62 C38.7 7.84, 45.59 8.01, 49.45 5.85" stroke="#2f9e44" stroke-width="4.5" fill="none"></path></g><g transform="translate(737.5604357457423 501.67680656921493) rotate(0 26.22344817882299 2.6887414418952744)"><path d="M30.58 -2.69 C39.66 -3.74, 46.13 2.16, 49.45 5.85" stroke="#2f9e44" stroke-width="4.5" fill="none"></path></g></g><mask></mask><g stroke-linecap="round" transform="translate(792.9999961853027 419.5) rotate(0 115.5 87.5)"><path d="M32 0 M32 0 C82.55 -4.05, 129.58 -1.58, 199 0 M199 0 C217.03 1.15, 229.29 7.97, 231 32 M231 32 C230.82 73.43, 227.85 120.19, 231 143 M231 143 C228.57 162.77, 222.15 172.5, 199 175 M199 175 C159.84 175.6, 127.72 176.85, 32 175 M32 175 C6.72 172.58, 2.48 164.15, 0 143 M0 143 C-1.48 104.84, -4.88 72.63, 0 32 M0 32 C1.16 7.1, 8.85 0.44, 32 0" stroke="#1e1e1e" stroke-width="2.5" fill="none" stroke-dasharray="1.5 8"></path></g><g transform="translate(817.9999961853027 457.5) rotate(0 91.19989013671875 50)"><text x="0" y="0" font-family="Virgil, Segoe UI Emoji" font-size="20px" fill="#1e1e1e" text-anchor="start" style="white-space: pre;" direction="ltr" dominant-baseline="text-before-edge">No worries mate</text><text x="0" y="25" font-family="Virgil, Segoe UI Emoji" font-size="20px" fill="#1e1e1e" text-anchor="start" style="white-space: pre;" direction="ltr" dominant-baseline="text-before-edge">worries mate she'll</text><text x="0" y="50" font-family="Virgil, Segoe UI Emoji" font-size="20px" fill="#1e1e1e" text-anchor="start" style="white-space: pre;" direction="ltr" dominant-baseline="text-before-edge">mate she'll be</text><text x="0" y="75" font-family="Virgil, Segoe UI Emoji" font-size="20px" fill="#1e1e1e" text-anchor="start" style="white-space: pre;" direction="ltr" dominant-baseline="text-before-edge">she'll be right</text></g></svg>