<svg version="1.1" xmlns="http://www.w3.org/2000/svg" viewBox="0 0 492 419" width="492" height="419" filter="invert(93%) hue-rotate(180deg)">
  <!-- svg-source:excalidraw -->
  
  <defs>
    <style class="style-fonts">
      @font-face {
        font-family: "Virgil";
        src: url("https://excalidraw.com/Virgil.woff2");
      }
      @font-face {
        font-family: "Cascadia";
        src: url("https://excalidraw.com/Cascadia.woff2");
      }
    </style>
    
  </defs>
  <rect x="0" y="0" width="492" height="419" fill="#ffffff"></rect><g stroke-linecap="round" transform="translate(16 10) rotate(0 38 35)"><path d="M35.43 0.7 C42.64 -0.23, 52.43 1.88, 58.89 5.27 C65.35 8.66, 71.66 14.72, 74.18 21.04 C76.71 27.36, 75.94 36.44, 74.04 43.19 C72.13 49.94, 68.32 57.24, 62.77 61.55 C57.22 65.86, 48.24 68.52, 40.73 69.04 C33.22 69.55, 24.16 68.17, 17.69 64.65 C11.22 61.13, 4.53 54.29, 1.91 47.9 C-0.71 41.52, 0.16 32.92, 2 26.34 C3.84 19.76, 7.19 12.72, 12.97 8.43 C18.74 4.14, 32.38 1.74, 36.64 0.59 C40.9 -0.55, 38.32 1.08, 38.53 1.56 M47.69 0.88 C54.24 2.53, 63.03 8.72, 67.54 14.25 C72.05 19.79, 74.37 27.46, 74.75 34.08 C75.13 40.69, 74.09 48.22, 69.81 53.94 C65.53 59.67, 56.27 65.93, 49.05 68.43 C41.84 70.93, 33.42 71.2, 26.53 68.95 C19.65 66.71, 12.15 60.48, 7.74 54.97 C3.34 49.45, 0.13 42.61, 0.1 35.87 C0.07 29.13, 3.34 20.32, 7.56 14.51 C11.79 8.7, 18.73 3.25, 25.44 1.02 C32.14 -1.21, 43.75 1.08, 47.8 1.15 C51.85 1.22, 49.63 0.84, 49.73 1.43" stroke="#1971c2" stroke-width="1" fill="none"></path></g><g stroke-linecap="round" transform="translate(18 123) rotate(0 38 35)"><path d="M42.18 -0.6 C49.26 -0.36, 56.92 4.31, 62.37 9.05 C67.82 13.78, 73.14 21.27, 74.9 27.81 C76.65 34.35, 75.83 42.04, 72.9 48.3 C69.96 54.56, 63.65 61.84, 57.29 65.38 C50.93 68.93, 42.19 70.37, 34.74 69.57 C27.3 68.77, 18.41 65.14, 12.62 60.59 C6.83 56.04, 1.48 48.94, 0 42.26 C-1.49 35.57, 0.55 26.73, 3.72 20.47 C6.89 14.2, 12.39 8.04, 19.03 4.66 C25.66 1.29, 38.89 0.73, 43.52 0.21 C48.15 -0.3, 46.71 0.87, 46.8 1.57 M30.43 0.69 C36.93 -0.93, 45.64 1.05, 52.67 3.74 C59.7 6.44, 68.73 10.82, 72.58 16.86 C76.43 22.91, 76.73 33.15, 75.77 40 C74.81 46.85, 71.74 53.06, 66.83 57.99 C61.92 62.91, 53.59 68.11, 46.31 69.56 C39.04 71, 29.88 69.43, 23.17 66.63 C16.46 63.84, 9.62 58.67, 6.05 52.78 C2.48 46.89, 1.08 38.27, 1.74 31.29 C2.39 24.31, 5.16 16.09, 9.97 10.91 C14.78 5.73, 27.23 1.73, 30.59 0.2 C33.96 -1.33, 29.96 1.19, 30.15 1.73" stroke="#1971c2" stroke-width="1" fill="none"></path></g><g stroke-linecap="round" transform="translate(16 229) rotate(0 38 35)"><path d="M29.01 1.53 C35.55 -0.4, 45.63 0.69, 52.6 3.36 C59.57 6.03, 66.97 11.59, 70.81 17.55 C74.65 23.51, 76.22 32.2, 75.65 39.11 C75.09 46.02, 72.43 54.11, 67.42 59 C62.42 63.89, 53.06 67.25, 45.64 68.45 C38.22 69.64, 29.48 68.71, 22.9 66.17 C16.32 63.64, 9.88 59.1, 6.14 53.24 C2.41 47.39, 0.03 37.84, 0.47 31.05 C0.91 24.26, 2.77 17.61, 8.78 12.51 C14.79 7.41, 30.8 2.55, 36.52 0.47 C42.24 -1.62, 43.09 -0.51, 43.09 0 M46.67 1.27 C53.31 2.42, 60.11 7.4, 64.83 12.2 C69.56 16.99, 73.95 23.42, 75.01 30.04 C76.07 36.65, 75.01 45.56, 71.17 51.88 C67.34 58.2, 58.68 65.02, 52 67.96 C45.31 70.9, 37.94 71.31, 31.07 69.55 C24.19 67.79, 15.64 62.68, 10.73 57.42 C5.83 52.16, 2.56 44.88, 1.64 37.98 C0.71 31.08, 1.61 21.91, 5.18 16.02 C8.75 10.13, 16.18 5.23, 23.03 2.65 C29.89 0.07, 42.55 0.57, 46.3 0.54 C50.04 0.52, 45.53 2.07, 45.51 2.49" stroke="#1971c2" stroke-width="1" fill="none"></path></g><g stroke-linecap="round" transform="translate(10 339) rotate(0 38 35)"><path d="M33.47 0.9 C40.52 -0.4, 50.94 0.64, 57.38 3.77 C63.82 6.89, 69.09 13.43, 72.11 19.66 C75.14 25.89, 77.03 34.29, 75.53 41.15 C74.02 48.01, 68.59 55.9, 63.09 60.84 C57.59 65.77, 49.8 69.85, 42.53 70.77 C35.25 71.68, 26.12 69.82, 19.44 66.34 C12.75 62.87, 5.49 56.42, 2.43 49.9 C-0.62 43.39, -0.48 33.97, 1.09 27.26 C2.67 20.55, 5.95 14.27, 11.89 9.65 C17.83 5.03, 31.87 0.89, 36.72 -0.47 C41.58 -1.83, 40.76 0.81, 41 1.48 M27.04 0.45 C33.56 -1.84, 42.63 0.59, 49.79 3.06 C56.96 5.52, 65.62 9.72, 70.02 15.24 C74.42 20.76, 76.58 29.41, 76.19 36.15 C75.8 42.9, 72.03 50.32, 67.69 55.7 C63.35 61.08, 57.4 66.39, 50.14 68.45 C42.87 70.51, 31.35 70.47, 24.09 68.07 C16.82 65.66, 10.67 59.54, 6.56 54.03 C2.45 48.51, -0.81 41.69, -0.56 34.98 C-0.32 28.27, 3.45 19.12, 8.04 13.76 C12.64 8.39, 23.77 4.7, 27 2.77 C30.23 0.85, 27.3 1.79, 27.42 2.22" stroke="#1971c2" stroke-width="1" fill="none"></path></g><g stroke-linecap="round" transform="translate(148 60) rotate(0 38 35)"><path d="M28.14 2.15 C34.88 -0.23, 44.11 -0.79, 50.99 1.5 C57.87 3.79, 65.25 10.26, 69.42 15.92 C73.6 21.57, 76.33 28.57, 76.02 35.46 C75.71 42.34, 72.03 51.69, 67.54 57.25 C63.06 62.8, 56.16 66.96, 49.1 68.79 C42.04 70.62, 32.36 70.63, 25.2 68.22 C18.04 65.81, 10.21 60.07, 6.13 54.33 C2.06 48.6, 0.61 40.61, 0.76 33.81 C0.92 27, 1.77 19.19, 7.04 13.5 C12.32 7.82, 27.36 1.76, 32.43 -0.3 C37.5 -2.35, 37.31 0.48, 37.47 1.15 M38.36 -0.34 C45.3 -0.74, 55.12 2.98, 61.07 7.2 C67.01 11.41, 71.77 18.33, 74.02 24.93 C76.28 31.52, 76.81 40.36, 74.6 46.78 C72.39 53.2, 66.96 59.76, 60.77 63.44 C54.59 67.12, 44.85 68.67, 37.48 68.86 C30.11 69.05, 22.49 68.39, 16.54 64.59 C10.59 60.79, 4.08 52.76, 1.78 46.08 C-0.53 39.4, 0.51 31.1, 2.71 24.5 C4.91 17.91, 9.22 10.77, 14.99 6.51 C20.76 2.24, 33.21 -0.06, 37.33 -1.1 C41.44 -2.14, 39.59 -0.37, 39.69 0.27" stroke="#1971c2" stroke-width="1" fill="none"></path></g><g stroke-linecap="round" transform="translate(151 179) rotate(0 38 35)"><path d="M36.73 0.05 C43.74 -0.75, 52.74 2.46, 58.94 6.25 C65.13 10.05, 71.25 16.36, 73.9 22.8 C76.56 29.25, 76.86 38.24, 74.87 44.94 C72.87 51.63, 67.84 58.84, 61.93 62.99 C56.02 67.14, 47.04 69.53, 39.39 69.84 C31.75 70.14, 22.09 68.61, 16.07 64.82 C10.05 61.02, 5.67 53.54, 3.29 47.06 C0.91 40.58, -0.13 32.64, 1.81 25.94 C3.74 19.24, 8.04 11.24, 14.92 6.86 C21.81 2.48, 37.51 0.27, 43.12 -0.34 C48.72 -0.94, 48.68 2.59, 48.55 3.23 M28.01 2.41 C34.47 0.5, 44.51 0.97, 51.36 3.14 C58.2 5.31, 64.93 9.63, 69.1 15.42 C73.27 21.21, 76.79 31.16, 76.39 37.86 C76 44.57, 71.42 50.64, 66.72 55.64 C62.02 60.65, 55.44 65.75, 48.22 67.89 C41.01 70.02, 30.66 70.76, 23.44 68.45 C16.21 66.13, 8.52 59.61, 4.85 53.98 C1.18 48.34, 1.01 41.23, 1.41 34.63 C1.81 28.03, 3.04 19.85, 7.25 14.4 C11.47 8.95, 23.14 4.07, 26.71 1.94 C30.28 -0.18, 28.15 1.3, 28.67 1.66" stroke="#1971c2" stroke-width="1" fill="none"></path></g><g stroke-linecap="round" transform="translate(275 116) rotate(0 38 35)"><path d="M45.63 0.89 C52.6 1.78, 60.93 7.16, 65.83 12.18 C70.74 17.2, 74.08 24.26, 75.08 31 C76.08 37.74, 75.41 46.58, 71.84 52.63 C68.28 58.68, 60.54 64.65, 53.68 67.3 C46.82 69.95, 37.94 70.15, 30.71 68.52 C23.47 66.89, 15.43 62.47, 10.27 57.52 C5.11 52.58, 0.66 45.59, -0.24 38.82 C-1.13 32.06, 1.1 22.94, 4.88 16.93 C8.66 10.91, 14.82 5.25, 22.44 2.72 C30.06 0.2, 45.33 1.49, 50.61 1.78 C55.88 2.06, 54.19 3.98, 54.07 4.42 M43.46 -1.05 C50.38 -0.49, 57.63 6.34, 63.13 11.39 C68.64 16.45, 74.81 22.79, 76.48 29.29 C78.15 35.8, 76.75 44.4, 73.14 50.44 C69.53 56.47, 61.39 62.41, 54.82 65.51 C48.24 68.62, 40.75 70.14, 33.69 69.06 C26.64 67.98, 17.94 63.52, 12.47 59.05 C7.01 54.58, 2.29 49.07, 0.91 42.25 C-0.47 35.43, 0.96 24.35, 4.17 18.14 C7.38 11.92, 13.62 7.83, 20.17 4.96 C26.71 2.09, 39.75 1.43, 43.46 0.9 C47.17 0.38, 42.61 1.09, 42.43 1.79" stroke="#1971c2" stroke-width="1" fill="none"></path></g><g stroke-linecap="round" transform="translate(265 323) rotate(0 38 35)"><path d="M27.35 1.99 C33.96 -0.32, 43.34 0.13, 50.54 2.42 C57.74 4.71, 66.45 10.09, 70.54 15.74 C74.63 21.38, 75.43 29.46, 75.08 36.28 C74.73 43.1, 72.86 51.37, 68.46 56.66 C64.05 61.96, 55.82 66.26, 48.63 68.05 C41.44 69.85, 32.2 69.67, 25.3 67.43 C18.39 65.2, 11.43 60.13, 7.23 54.65 C3.03 49.16, -0.03 41.26, 0.08 34.52 C0.2 27.78, 2.41 20.06, 7.93 14.21 C13.45 8.35, 27.89 1.7, 33.19 -0.61 C38.49 -2.92, 39.59 -0.34, 39.72 0.35 M44.77 1.2 C51.82 1.75, 59.77 5.54, 65.03 10.28 C70.28 15.02, 75.36 22.8, 76.29 29.65 C77.22 36.51, 74.23 45.13, 70.62 51.4 C67.01 57.67, 61.44 64.07, 54.62 67.28 C47.8 70.49, 36.97 72.04, 29.7 70.66 C22.43 69.28, 16.14 64.27, 11.01 59.01 C5.89 53.75, 0.19 46.13, -1.04 39.1 C-2.26 32.08, -0.08 23, 3.64 16.86 C7.36 10.72, 14.5 4.96, 21.28 2.27 C28.06 -0.43, 40.34 0.6, 44.31 0.66 C48.28 0.73, 45.3 2.23, 45.08 2.64" stroke="#1971c2" stroke-width="1" fill="none"></path></g><g mask="url(#mask-41_bOhAUSpjU8OY35oaRg)" stroke-linecap="round"><g transform="translate(88 51) rotate(0 31.877933858865873 14.891778705641627)"><path d="M1.04 -0.78 C11.58 4.43, 53.12 25.55, 63.62 30.56 M0.13 1.43 C10.52 6.34, 52.38 23.93, 63 28.73" stroke="#e03131" stroke-width="1" fill="none"></path></g><g transform="translate(88 51) rotate(0 31.877933858865873 14.891778705641627)"><path d="M31.77 27.94 C44.04 29.05, 51.99 26.08, 62.04 26.83 M33.57 26.43 C41.62 26.93, 51.73 27.77, 62.42 29.31" stroke="#e03131" stroke-width="1" fill="none"></path></g><g transform="translate(88 51) rotate(0 31.877933858865873 14.891778705641627)"><path d="M39.95 9.12 C49.37 16.62, 54.57 19.97, 62.04 26.83 M41.75 7.61 C47.25 13.92, 54.84 20.53, 62.42 29.31" stroke="#e03131" stroke-width="1" fill="none"></path></g></g><mask id="mask-41_bOhAUSpjU8OY35oaRg"><rect x="0" y="0" fill="#fff" width="251" height="181"></rect><rect x="110.70000457763672" y="53.5" fill="#000" width="17.599990844726562" height="25" opacity="1"></rect></mask><g transform="translate(110.70000457763672 53.5) rotate(0 9.177929281229154 12.391778705641627)"><text x="8.799995422363281" y="0" font-family="Virgil, Segoe UI Emoji" font-size="20px" fill="#1e1e1e" text-anchor="middle" style="white-space: pre;" direction="ltr" dominant-baseline="text-before-edge">w1</text></g><g mask="url(#mask-LTGNhtywCoFY-m04pTa2q)" stroke-linecap="round"><g transform="translate(91.1220661411341 51.10822129435837) rotate(0 36.906222858652484 66.38351328738032)"><path d="M0.94 1.09 C13.18 22.81, 61.72 109.14, 73.84 131.09 M-0.03 0.62 C12.1 22.39, 61.12 110.44, 73.34 132.15" stroke="#e03131" stroke-width="1" fill="none"></path></g><g transform="translate(91.1220661411341 51.10822129435837) rotate(0 36.906222858652484 66.38351328738032)"><path d="M52.44 113.96 C56.75 119.97, 67.13 125.83, 72.94 130.82 M51.15 111.66 C57.68 119.2, 65.68 125.13, 72.81 132.82" stroke="#e03131" stroke-width="1" fill="none"></path></g><g transform="translate(91.1220661411341 51.10822129435837) rotate(0 36.906222858652484 66.38351328738032)"><path d="M70.35 103.94 C68.8 113.4, 73.25 122.59, 72.94 130.82 M69.06 101.65 C70.07 112.33, 72.51 121.36, 72.81 132.82" stroke="#e03131" stroke-width="1" fill="none"></path></g></g><mask id="mask-LTGNhtywCoFY-m04pTa2q"><rect x="0" y="0" fill="#fff" width="264.12206614113416" height="283.1082212943584"></rect><rect x="114.41207468605609" y="104.60822129435837" fill="#000" width="26.41998291015625" height="25" opacity="1"></rect></mask><g transform="translate(114.41207468605603 104.60822129435837) rotate(0 13.616214313730552 12.883513287380325)"><text x="13.209991455078125" y="0" font-family="Virgil, Segoe UI Emoji" font-size="20px" fill="#1e1e1e" text-anchor="middle" style="white-space: pre;" direction="ltr" dominant-baseline="text-before-edge">w2</text></g><g mask="url(#mask-cAKt38UBtv-orqyYE01o3)" stroke-linecap="round"><g transform="translate(94.1220661411341 162.10822129435837) rotate(0 35.51884177736943 11.262925219014278)"><path d="M-0.34 -0.48 C11.59 3.73, 59.38 20.24, 71.38 24.3 M1.68 -1.78 C13.51 2.13, 59.05 17.85, 70.63 22.34" stroke="#e03131" stroke-width="1" fill="none"></path></g><g transform="translate(94.1220661411341 162.10822129435837) rotate(0 35.51884177736943 11.262925219014278)"><path d="M39.83 22.99 C49.55 23.47, 57.3 24.13, 70.09 21.7 M40.44 21.75 C52.19 21.65, 61.66 22.94, 70.97 23.05" stroke="#e03131" stroke-width="1" fill="none"></path></g><g transform="translate(94.1220661411341 162.10822129435837) rotate(0 35.51884177736943 11.262925219014278)"><path d="M46.83 3.7 C54.44 9.58, 60.22 15.65, 70.09 21.7 M47.44 2.46 C56.81 9.09, 63.82 17.18, 70.97 23.05" stroke="#e03131" stroke-width="1" fill="none"></path></g></g><mask id="mask-cAKt38UBtv-orqyYE01o3"><rect x="0" y="0" fill="#fff" width="265.12206614113416" height="286.1082212943584"></rect><rect x="116.72207987404437" y="161.60822129435837" fill="#000" width="25.799972534179688" height="25" opacity="1"></rect></mask><g transform="translate(116.72207987404431 161.60822129435837) rotate(0 12.918828044459218 11.762925219014278)"><text x="12.899986267089844" y="0" font-family="Virgil, Segoe UI Emoji" font-size="20px" fill="#1e1e1e" text-anchor="middle" style="white-space: pre;" direction="ltr" dominant-baseline="text-before-edge">w3</text></g><g mask="url(#mask-nYarZbDMpaEUem60eAclC)" stroke-linecap="round"><g transform="translate(220.12206614113416 113.10822129435837) rotate(0 29.481387713039283 8.456296119755137)"><path d="M0.16 0.41 C10.38 3.13, 50.11 14.58, 60.18 17.34 M-1.21 -0.43 C8.96 1.84, 49.1 12.28, 59.32 15.39" stroke="#e03131" stroke-width="1" fill="none"></path></g><g transform="translate(220.12206614113416 113.10822129435837) rotate(0 29.481387713039283 8.456296119755137)"><path d="M30.09 18 C36.11 18.13, 41.64 18.25, 57.65 14.02 M29.19 17.07 C38.85 16.48, 48.27 17.13, 58.46 14.94" stroke="#e03131" stroke-width="1" fill="none"></path></g><g transform="translate(220.12206614113416 113.10822129435837) rotate(0 29.481387713039283 8.456296119755137)"><path d="M35.6 -1.76 C40.65 2.43, 45.05 6.63, 57.65 14.02 M34.69 -2.69 C42.6 3.14, 50.22 10.25, 58.46 14.94" stroke="#e03131" stroke-width="1" fill="none"></path></g></g><mask id="mask-nYarZbDMpaEUem60eAclC"><rect x="0" y="0" fill="#fff" width="380.12206614113416" height="230.10822129435837"></rect><rect x="236.38207590675916" y="109.10822129435837" fill="#000" width="27.47998046875" height="25" opacity="1"></rect></mask><g transform="translate(236.38207590675916 109.10822129435837) rotate(0 13.221377947414283 12.456296119755137)"><text x="13.739990234375" y="0" font-family="Virgil, Segoe UI Emoji" font-size="20px" fill="#1e1e1e" text-anchor="middle" style="white-space: pre;" direction="ltr" dominant-baseline="text-before-edge">w8</text></g><g mask="url(#mask-koWNcUx2ZFXcgQa8lNcFq)" stroke-linecap="round"><g transform="translate(95.12206614113416 271.1082212943584) rotate(0 30.75273922599854 -14.079372743889678)"><path d="M0.03 0.03 C10.46 -4.5, 52.68 -23.53, 62.92 -28.19 M-1.41 -1 C8.9 -5.25, 52.15 -22.49, 62.45 -26.75" stroke="#e03131" stroke-width="1" fill="none"></path></g><g transform="translate(95.12206614113416 271.1082212943584) rotate(0 30.75273922599854 -14.079372743889678)"><path d="M40.22 -5.13 C47.39 -14.17, 55.24 -21.73, 60.65 -24.87 M40.54 -6.57 C48.11 -13.6, 56.2 -20.35, 61.72 -26.12" stroke="#e03131" stroke-width="1" fill="none"></path></g><g transform="translate(95.12206614113416 271.1082212943584) rotate(0 30.75273922599854 -14.079372743889678)"><path d="M32.52 -24.15 C42.07 -26.91, 52.46 -28.19, 60.65 -24.87 M32.84 -25.6 C42.95 -26.2, 53.64 -26.53, 61.72 -26.12" stroke="#e03131" stroke-width="1" fill="none"></path></g></g><mask id="mask-koWNcUx2ZFXcgQa8lNcFq"><rect x="0" y="0" fill="#fff" width="257.12206614113416" height="399.1082212943584"></rect><rect x="113.63207590675916" y="244.60822129435837" fill="#000" width="24.97998046875" height="25" opacity="1"></rect></mask><g transform="translate(113.63207590675916 244.60822129435837) rotate(0 12.242729460373539 12.420627256110322)"><text x="12.489990234375" y="0" font-family="Virgil, Segoe UI Emoji" font-size="20px" fill="#1e1e1e" text-anchor="middle" style="white-space: pre;" direction="ltr" dominant-baseline="text-before-edge">w4</text></g><g mask="url(#mask-aRwnNEmAoKtrzrkhJnKi1)" stroke-linecap="round"><g transform="translate(91.12206614113416 272.1082212943584) rotate(0 83.57690120615064 42.76812209807338)"><path d="M0.62 0.34 C28.59 14.75, 139.82 71.76, 167.66 86.06 M-0.51 -0.53 C27.28 13.61, 138.66 70.33, 166.54 84.5" stroke="#e03131" stroke-width="1" fill="none"></path></g><g transform="translate(91.12206614113416 272.1082212943584) rotate(0 83.57690120615064 42.76812209807338)"><path d="M137.33 80.3 C147.13 81.23, 155.95 82.72, 165.49 84.78 M136.33 80.47 C147.53 82.82, 160.75 83.57, 165.84 84.1" stroke="#e03131" stroke-width="1" fill="none"></path></g><g transform="translate(91.12206614113416 272.1082212943584) rotate(0 83.57690120615064 42.76812209807338)"><path d="M146.63 62.01 C153.68 68.28, 159.81 75.06, 165.49 84.78 M145.63 62.18 C153.32 71.73, 162.92 79.61, 165.84 84.1" stroke="#e03131" stroke-width="1" fill="none"></path></g></g><mask id="mask-aRwnNEmAoKtrzrkhJnKi1"><rect x="0" y="0" fill="#fff" width="359.12206614113416" height="457.1082212943584"></rect><rect x="162.85207712746228" y="302.1082212943584" fill="#000" width="24.53997802734375" height="25" opacity="1"></rect></mask><g transform="translate(162.85207712746228 302.1082212943584) rotate(0 11.846890219822512 12.768122098073377)"><text x="12.269989013671875" y="0" font-family="Virgil, Segoe UI Emoji" font-size="20px" fill="#1e1e1e" text-anchor="middle" style="white-space: pre;" direction="ltr" dominant-baseline="text-before-edge">w5</text></g><g mask="url(#mask-k_avMTbLq_cq-CC9xqhqm)" stroke-linecap="round"><g transform="translate(92.1220661411341 374.1082212943584) rotate(0 33.53763605960651 -64.63045582854187)"><path d="M0.6 0.19 C11.77 -21.22, 56.61 -106.3, 67.62 -127.56 M-0.54 -0.76 C10.47 -22.61, 55.95 -108.01, 66.99 -129.45" stroke="#e03131" stroke-width="1" fill="none"></path></g><g transform="translate(92.1220661411341 374.1082212943584) rotate(0 33.53763605960651 -64.63045582854187)"><path d="M63.29 -98.69 C64.91 -110.76, 66.65 -120.02, 65.96 -129.8 M62.26 -99.43 C63.54 -109.45, 66.07 -116.62, 67.74 -129.71" stroke="#e03131" stroke-width="1" fill="none"></path></g><g transform="translate(92.1220661411341 374.1082212943584) rotate(0 33.53763605960651 -64.63045582854187)"><path d="M45.12 -108.22 C53.19 -117.04, 61.3 -122.95, 65.96 -129.8 M44.09 -108.97 C50.79 -116.13, 58.71 -120.47, 67.74 -129.71" stroke="#e03131" stroke-width="1" fill="none"></path></g></g><mask id="mask-k_avMTbLq_cq-CC9xqhqm"><rect x="0" y="0" fill="#fff" width="259.12206614113416" height="602.1082212943584"></rect><rect x="113.13207590675921" y="297.6082212943584" fill="#000" width="24.97998046875" height="25" opacity="1"></rect></mask><g transform="translate(113.13207590675916 297.6082212943584) rotate(0 12.527626293981456 11.86954417145813)"><text x="12.489990234375" y="0" font-family="Virgil, Segoe UI Emoji" font-size="20px" fill="#1e1e1e" text-anchor="middle" style="white-space: pre;" direction="ltr" dominant-baseline="text-before-edge">w6</text></g><g mask="url(#mask-IyGfMADDi4ejL8MAhRtV9)" stroke-linecap="round"><g transform="translate(92.1220661411341 372.1082212943584) rotate(0 103.38777085043495 -90.29630518533287)"><path d="M0.18 1.01 C34.79 -28.89, 173.51 -149.65, 207.96 -179.66 M-1.19 0.49 C33.24 -29.75, 171.93 -151.38, 206.99 -181.6" stroke="#e03131" stroke-width="1" fill="none"></path></g><g transform="translate(92.1220661411341 372.1082212943584) rotate(0 103.38777085043495 -90.29630518533287)"><path d="M194.15 -155.41 C197.83 -165.78, 203.63 -171.82, 207.33 -182.92 M191.69 -155.38 C195.63 -161, 198.82 -167.55, 206.36 -182.56" stroke="#e03131" stroke-width="1" fill="none"></path></g><g transform="translate(92.1220661411341 372.1082212943584) rotate(0 103.38777085043495 -90.29630518533287)"><path d="M180.67 -170.89 C188.7 -176.25, 198.88 -177.25, 207.33 -182.92 M178.21 -170.86 C185.37 -172.88, 191.66 -175.86, 206.36 -182.56" stroke="#e03131" stroke-width="1" fill="none"></path></g></g><mask id="mask-IyGfMADDi4ejL8MAhRtV9"><rect x="0" y="0" fill="#fff" width="400.12206614113416" height="652.1082212943584"></rect><rect x="184.65207254982562" y="269.6082212943584" fill="#000" width="22.939987182617188" height="25" opacity="1"></rect></mask><g transform="translate(184.65207254982556 269.6082212943584) rotate(0 10.857764441743484 12.20369481466713)"><text x="11.469993591308594" y="0" font-family="Virgil, Segoe UI Emoji" font-size="20px" fill="#1e1e1e" text-anchor="middle" style="white-space: pre;" direction="ltr" dominant-baseline="text-before-edge">w7</text></g><g mask="url(#mask-PY0xQGX6U8ylJGqxms-Uz)" stroke-linecap="round"><g transform="translate(225.12206614113416 229.10822129435837) rotate(0 16.355823299214194 64.01326630659403)"><path d="M0.84 0.01 C6.25 21.19, 27.68 106.25, 32.89 127.69 M-0.18 -1.03 C5.11 20.27, 27.15 107.78, 32.41 129.06" stroke="#e03131" stroke-width="1" fill="none"></path></g><g transform="translate(225.12206614113416 229.10822129435837) rotate(0 16.355823299214194 64.01326630659403)"><path d="M15.63 105.68 C20.87 112.56, 28.1 121.54, 30.61 128.48 M15.23 103.22 C19.37 109.59, 23.53 115.75, 32.69 129.09" stroke="#e03131" stroke-width="1" fill="none"></path></g><g transform="translate(225.12206614113416 229.10822129435837) rotate(0 16.355823299214194 64.01326630659403)"><path d="M35.54 100.7 C34.11 109.4, 34.64 120.05, 30.61 128.48 M35.14 98.25 C34.6 105.91, 34.1 113.23, 32.69 129.09" stroke="#e03131" stroke-width="1" fill="none"></path></g></g><mask id="mask-PY0xQGX6U8ylJGqxms-Uz"><rect x="0" y="0" fill="#fff" width="357.12206614113416" height="457.1082212943584"></rect><rect x="228.9420734653529" y="280.6082212943584" fill="#000" width="24.3599853515625" height="25" opacity="1"></rect></mask><g transform="translate(228.9420734653529 280.6082212943584) rotate(0 12.535815974995444 12.513266306594033)"><text x="12.17999267578125" y="0" font-family="Virgil, Segoe UI Emoji" font-size="20px" fill="#1e1e1e" text-anchor="middle" style="white-space: pre;" direction="ltr" dominant-baseline="text-before-edge">w9</text></g><g stroke-linecap="round" transform="translate(406 227) rotate(0 38 35)"><path d="M34.28 0.49 C41.3 -0.76, 50.75 1.03, 57.09 4.46 C63.42 7.89, 69.25 14.66, 72.28 21.07 C75.31 27.47, 76.81 36.26, 75.27 42.9 C73.72 49.55, 68.8 56.45, 63.02 60.94 C57.24 65.43, 47.99 69.34, 40.6 69.84 C33.21 70.34, 25 67.47, 18.67 63.91 C12.33 60.36, 5.63 54.74, 2.59 48.51 C-0.46 42.28, -1.31 33.24, 0.39 26.52 C2.1 19.79, 6.54 12.75, 12.82 8.18 C19.09 3.6, 33.23 0.11, 38.04 -0.94 C42.86 -1.99, 41.45 0.97, 41.69 1.88 M35.39 -1.32 C42.04 -2.28, 51.21 2.94, 57.26 6.62 C63.32 10.3, 68.82 14.53, 71.7 20.79 C74.57 27.05, 76.25 37.26, 74.51 44.19 C72.76 51.11, 67.03 58.14, 61.21 62.35 C55.39 66.55, 46.84 68.93, 39.59 69.42 C32.33 69.91, 23.62 68.58, 17.7 65.28 C11.77 61.98, 6.98 55.9, 4.04 49.62 C1.1 43.35, -1.47 34.32, 0.07 27.63 C1.61 20.95, 7.49 14.33, 13.28 9.52 C19.07 4.71, 31.39 0.04, 34.81 -1.23 C38.24 -2.5, 33.71 0.89, 33.84 1.92" stroke="#1971c2" stroke-width="1" fill="none"></path></g><g mask="url(#mask-nbwhaIzJYPlg_U8kl1k5y)" stroke-linecap="round"><g transform="translate(348.5186122869608 169.5437038802449) rotate(0 31.147341913208322 36.96149248100818)"><path d="M0.08 1.07 C10.48 12.9, 51.13 60.14, 61.3 71.86 M-1.34 0.59 C9.56 12.53, 52.83 61.36, 63.64 73.33" stroke="#e03131" stroke-width="1" fill="none"></path></g><g transform="translate(348.5186122869608 169.5437038802449) rotate(0 31.147341913208322 36.96149248100818)"><path d="M38.99 57.97 C42.46 60.5, 47.1 63.86, 64.32 71.44 M36.39 58.4 C44.39 63.05, 52.72 67.55, 64.04 73.64" stroke="#e03131" stroke-width="1" fill="none"></path></g><g transform="translate(348.5186122869608 169.5437038802449) rotate(0 31.147341913208322 36.96149248100818)"><path d="M54.3 44.3 C54.75 49.61, 56.29 55.75, 64.32 71.44 M51.69 44.72 C55.28 53.34, 59.18 61.79, 64.04 73.64" stroke="#e03131" stroke-width="1" fill="none"></path></g></g><mask id="mask-nbwhaIzJYPlg_U8kl1k5y"><rect x="0" y="0" fill="#fff" width="510.5186122869608" height="341.5437038802449"></rect><rect x="363.8386196111795" y="193.0437038802449" fill="#000" width="31.3599853515625" height="25" opacity="1"></rect></mask><g transform="translate(363.8386196111795 193.0437038802449) rotate(0 15.827334588989572 13.461492481008179)"><text x="15.67999267578125" y="0" font-family="Virgil, Segoe UI Emoji" font-size="20px" fill="#1e1e1e" text-anchor="middle" style="white-space: pre;" direction="ltr" dominant-baseline="text-before-edge">w10</text></g><g mask="url(#mask-U598SK3aejg2MWNmkLfGP)" stroke-linecap="round"><g transform="translate(343.5186122869608 348.54370388024483) rotate(0 32.315184034183574 -34.24052069596945)"><path d="M-0.25 0.59 C10.07 -10.87, 51.98 -57.65, 62.8 -69.07 M1.81 -0.14 C12.42 -11.38, 54.48 -55.97, 64.88 -67.58" stroke="#e03131" stroke-width="1" fill="none"></path></g><g transform="translate(343.5186122869608 348.54370388024483) rotate(0 32.315184034183574 -34.24052069596945)"><path d="M54.29 -41.9 C57.53 -49.02, 63.65 -58.68, 63.58 -68.17 M53.4 -40.44 C54.94 -45.75, 58.34 -50.62, 64.28 -66.78" stroke="#e03131" stroke-width="1" fill="none"></path></g><g transform="translate(343.5186122869608 348.54370388024483) rotate(0 32.315184034183574 -34.24052069596945)"><path d="M39.21 -55.82 C47.98 -57.76, 59.68 -62.28, 63.58 -68.17 M38.32 -54.36 C43.07 -56.87, 49.58 -58.87, 64.28 -66.78" stroke="#e03131" stroke-width="1" fill="none"></path></g></g><mask id="mask-U598SK3aejg2MWNmkLfGP"><rect x="0" y="0" fill="#fff" width="507.5186122869608" height="517.5437038802448"></rect><rect x="364.00861778012484" y="301.54370388024483" fill="#000" width="23.019989013671875" height="25" opacity="1"></rect></mask><g transform="translate(364.00861778012484 301.54370388024483) rotate(0 11.825178541019511 12.759479304030549)"><text x="11.509994506835938" y="0" font-family="Virgil, Segoe UI Emoji" font-size="20px" fill="#1e1e1e" text-anchor="middle" style="white-space: pre;" direction="ltr" dominant-baseline="text-before-edge">w11</text></g></svg>